<?xml version="1.0" encoding="UTF-8"?>
<svg id="katman_1" data-name="katman 1" xmlns="http://www.w3.org/2000/svg" xmlns:xlink="http://www.w3.org/1999/xlink" viewBox="0 0 146.6 164.18">
  <defs>
    <style>
      .cls-1 {
        fill: url(#linear-gradient);
      }

      .cls-2 {
        fill: #201330;
      }

      .cls-3 {
        fill: url(#linear-gradient-3);
      }

      .cls-4 {
        fill: url(#linear-gradient-2);
      }

      .cls-5 {
        fill: url(#radial-gradient);
      }
    </style>
    <radialGradient id="radial-gradient" cx="2.69" cy="52.67" fx="2.69" fy="52.67" r="77.38" gradientUnits="userSpaceOnUse">
      <stop offset=".17" stop-color="#1f76ba"/>
      <stop offset=".37" stop-color="#2279b9"/>
      <stop offset=".57" stop-color="#2c85b6"/>
      <stop offset=".76" stop-color="#3d99b1"/>
      <stop offset=".96" stop-color="#54b5ab"/>
      <stop offset="1" stop-color="#5abcaa"/>
    </radialGradient>
    <linearGradient id="linear-gradient" x1="14.44" y1="45.47" x2="112.37" y2="45.47" gradientUnits="userSpaceOnUse">
      <stop offset="0" stop-color="#5abcaa"/>
      <stop offset=".04" stop-color="#54b5ab"/>
      <stop offset=".24" stop-color="#3d99b1"/>
      <stop offset=".43" stop-color="#2c85b6"/>
      <stop offset=".63" stop-color="#2279b9"/>
      <stop offset=".83" stop-color="#1f76ba"/>
    </linearGradient>
    <linearGradient id="linear-gradient-2" x1="160.46" y1="-1.43" x2="230.45" y2="-1.43" gradientTransform="translate(306.93 85.58) rotate(-180)" gradientUnits="userSpaceOnUse">
      <stop offset="0" stop-color="#a51256"/>
      <stop offset=".15" stop-color="#a81853"/>
      <stop offset=".35" stop-color="#b3294b"/>
      <stop offset=".57" stop-color="#c4453f"/>
      <stop offset=".82" stop-color="#dc6c2e"/>
      <stop offset="1" stop-color="#f28f1f"/>
    </linearGradient>
    <linearGradient id="linear-gradient-3" x1="174.78" y1="-33.19" x2="272.71" y2="-33.19" gradientTransform="translate(306.93 85.58) rotate(-180)" gradientUnits="userSpaceOnUse">
      <stop offset="0" stop-color="#f28f1f"/>
      <stop offset=".18" stop-color="#dc6c2e"/>
      <stop offset=".43" stop-color="#c4453f"/>
      <stop offset=".65" stop-color="#b3294b"/>
      <stop offset=".85" stop-color="#a81853"/>
      <stop offset=".99" stop-color="#a51256"/>
    </linearGradient>
  </defs>
  <g>
    <path class="cls-5" d="m46.35,108.16c5.44,5.44,14.25,5.44,19.69,0h0c5.44-5.43,5.44-14.25,0-19.68L23.88,46.32c-5.44-5.44-14.25-5.44-19.69,0h0c-5.44,5.44-5.44,14.25,0,19.69l24.94,24.87,17.22,17.28Z"/>
    <path class="cls-1" d="m66.03,4.14c-5.44-5.44-14.25-5.44-19.69,0L4.19,46.3c-5.32,5.32-5.66,13.65-.56,19.11l.22.23.28.28s.04.04.06.07c.02.02.05.04.07.06l24.87,24.84c-13.39-13.39,4.59-34.73,4.59-34.73h0s32.32-32.32,32.32-32.32c5.43-5.44,5.44-14.25,0-19.69Z"/>
  </g>
  <g>
    <path class="cls-4" d="m100.25,56.09c-5.44-5.44-14.25-5.44-19.69,0h0c-5.44,5.44-5.44,14.25,0,19.69l42.15,42.15c5.44,5.44,14.25,5.44,19.69,0h0c5.44-5.44,5.44-14.25,0-19.69l-24.94-24.87-17.22-17.28Z"/>
    <path class="cls-3" d="m80.56,160.11c5.44,5.44,14.25,5.44,19.69,0l42.15-42.15c5.32-5.32,5.66-13.65.56-19.11l-.22-.23-.28-.28s-.04-.04-.06-.07c-.02-.02-.05-.04-.07-.06l-24.87-24.84c13.39,13.39-4.59,34.73-4.59,34.73h0s-32.32,32.32-32.32,32.32c-5.44,5.44-5.44,14.25,0,19.69Z"/>
  </g>
  <path class="cls-2" d="m64.68,154.56c-2.22,7.1-9.78,11.06-16.89,8.84h0c-7.1-2.22-11.06-9.78-8.84-16.89L82.55,9.46c2.22-7.1,9.78-11.06,16.89-8.84h0c7.1,2.22,11.06,9.78,8.84,16.89l-43.6,137.05Z"/>
</svg>