<?xml version="1.0" encoding="UTF-8"?>
<svg id="OBJECTS" xmlns="http://www.w3.org/2000/svg" xmlns:xlink="http://www.w3.org/1999/xlink" viewBox="0 0 621.05 500">
  <defs>
    <style>
      .cls-1 {
        fill: url(#linear-gradient);
      }

      .cls-2, .cls-3, .cls-4 {
        fill: #fff;
      }

      .cls-5 {
        fill: url(#linear-gradient-3);
      }

      .cls-6 {
        fill: url(#linear-gradient-2);
      }

      .cls-7 {
        fill: url(#radial-gradient);
      }

      .cls-3 {
        font-family: Montserrat-Bold, Montserrat;
        font-size: 130px;
        font-weight: 700;
        letter-spacing: .2em;
      }

      .cls-4 {
        font-family: Montserrat-Light, Montserrat;
        font-size: 28px;
        font-weight: 300;
      }

      .cls-8 {
        letter-spacing: 2.99em;
      }

      .cls-9 {
        letter-spacing: 2.99em;
      }

      .cls-10 {
        letter-spacing: 3em;
      }
    </style>
    <radialGradient id="radial-gradient" cx="14.09" cy="226.75" fx="14.09" fy="226.75" r="77.38" gradientUnits="userSpaceOnUse">
      <stop offset=".17" stop-color="#4674b5"/>
      <stop offset=".33" stop-color="#4877b5"/>
      <stop offset=".49" stop-color="#4e83b5"/>
      <stop offset=".66" stop-color="#5997b6"/>
      <stop offset=".82" stop-color="#68b4b7"/>
      <stop offset=".98" stop-color="#7bd7b8"/>
      <stop offset="1" stop-color="#7edcb9"/>
    </radialGradient>
    <linearGradient id="linear-gradient" x1="25.83" y1="219.55" x2="123.77" y2="219.55" gradientUnits="userSpaceOnUse">
      <stop offset="0" stop-color="#7edcb9"/>
      <stop offset=".02" stop-color="#7bd7b8"/>
      <stop offset=".18" stop-color="#68b4b7"/>
      <stop offset=".34" stop-color="#5997b6"/>
      <stop offset=".51" stop-color="#4e83b5"/>
      <stop offset=".67" stop-color="#4877b5"/>
      <stop offset=".83" stop-color="#4674b5"/>
    </linearGradient>
    <linearGradient id="linear-gradient-2" x1="1722.34" y1="160.18" x2="1792.33" y2="160.18" gradientTransform="translate(1880.21 421.26) rotate(-180)" gradientUnits="userSpaceOnUse">
      <stop offset="0" stop-color="#8c0053"/>
      <stop offset=".14" stop-color="#8f0651"/>
      <stop offset=".32" stop-color="#99174c"/>
      <stop offset=".53" stop-color="#a83345"/>
      <stop offset=".76" stop-color="#bf5b3b"/>
      <stop offset="1" stop-color="#db8d2e"/>
    </linearGradient>
    <linearGradient id="linear-gradient-3" x1="1736.66" y1="128.41" x2="1834.59" y2="128.41" gradientTransform="translate(1880.21 421.26) rotate(-180)" gradientUnits="userSpaceOnUse">
      <stop offset="0" stop-color="#db8d2e"/>
      <stop offset=".24" stop-color="#bf5b3b"/>
      <stop offset=".47" stop-color="#a83345"/>
      <stop offset=".68" stop-color="#99174c"/>
      <stop offset=".86" stop-color="#8f0651"/>
      <stop offset=".99" stop-color="#8c0053"/>
    </linearGradient>
  </defs>
  <g>
    <g>
      <g>
        <path class="cls-7" d="m57.75,282.23c5.44,5.44,14.25,5.44,19.69,0h0c5.44-5.43,5.44-14.25,0-19.68l-42.15-42.15c-5.44-5.44-14.25-5.44-19.69,0h0c-5.44,5.44-5.44,14.25,0,19.69l24.94,24.87,17.22,17.28Z"/>
        <path class="cls-1" d="m77.43,178.22c-5.44-5.44-14.25-5.44-19.69,0l-42.15,42.15c-5.32,5.32-5.66,13.65-.56,19.11l.22.23.28.28s.04.04.06.07c.02.02.05.04.07.06l24.87,24.84c-13.39-13.39,4.59-34.73,4.59-34.73h0s32.32-32.32,32.32-32.32c5.43-5.44,5.44-14.25,0-19.69Z"/>
      </g>
      <g>
        <path class="cls-6" d="m111.65,230.16c-5.44-5.44-14.25-5.44-19.69,0h0c-5.44,5.44-5.44,14.25,0,19.69l42.15,42.15c5.44,5.44,14.25,5.44,19.69,0h0c5.44-5.44,5.44-14.25,0-19.69l-24.94-24.87-17.22-17.28Z"/>
        <path class="cls-5" d="m91.96,334.18c5.44,5.44,14.25,5.44,19.69,0l42.15-42.15c5.32-5.32,5.66-13.65.56-19.11l-.22-.23-.28-.28s-.04-.04-.06-.07c-.02-.02-.05-.04-.07-.06l-24.87-24.84c13.39,13.39-4.59,34.73-4.59,34.73h0s-32.32,32.32-32.32,32.32c-5.44,5.44-5.44,14.25,0,19.69Z"/>
      </g>
      <path class="cls-2" d="m76.08,328.63c-2.22,7.1-9.78,11.06-16.89,8.84h0c-7.1-2.22-11.06-9.78-8.84-16.89l43.6-137.05c2.22-7.1,9.78-11.06,16.89-8.84h0c7.1,2.22,11.06,9.78,8.84,16.89l-43.6,137.05Z"/>
    </g>
    <text class="cls-3" transform="translate(200.49 296.08)"><tspan x="0" y="0">MSS</tspan></text>
  </g>
  <text class="cls-4" transform="translate(207.6 338.09)"><tspan class="cls-10" x="0" y="0">D</tspan><tspan class="cls-9" x="107.13" y="0">E</tspan><tspan class="cls-8" x="209.58" y="0">V</tspan><tspan class="cls-10" x="312.4" y="0">S</tspan></text>
</svg>